<?xml version="1.0" standalone="no"?>
<!DOCTYPE svg PUBLIC "-//W3C//DTD SVG 20010904//EN"
 "http://www.w3.org/TR/2001/REC-SVG-20010904/DTD/svg10.dtd">
<svg version="1.0" xmlns="http://www.w3.org/2000/svg"
 width="512.000000pt" height="512.000000pt" viewBox="0 0 512.000000 512.000000"
 preserveAspectRatio="xMidYMid meet">
<metadata>
Created by potrace 1.14, written by Peter Selinger 2001-2017
</metadata>
<g transform="translate(0.000000,512.000000) scale(0.100000,-0.100000)"
fill="#000000" stroke="none">
<path d="M1136 4923 c-14 -14 -26 -37 -27 -52 -1 -14 -2 -55 -3 -91 -2 -36 -3
-70 -4 -76 -1 -8 -38 -12 -113 -13 -151 -2 -167 -13 -170 -118 l-2 -51 -378 0
c-401 -1 -406 -1 -428 -50 -8 -16 -11 -550 -11 -1791 l0 -1768 26 -24 26 -24
909 -2 910 -3 57 -43 c491 -375 1149 -414 1677 -99 275 164 510 442 626 741
26 68 65 202 74 256 22 131 24 153 24 285 0 136 -2 154 -24 290 -17 96 -74
260 -131 373 -57 114 -83 154 -160 253 l-63 81 149 148 148 147 128 -27 c71
-15 152 -29 181 -32 l52 -5 254 253 c220 221 253 258 255 287 2 25 -5 40 -25
61 -24 23 -48 31 -181 56 -109 21 -153 34 -157 45 -2 8 -16 76 -31 150 -14 74
-33 145 -41 158 -17 27 -59 45 -89 38 -29 -8 -513 -494 -521 -524 -3 -12 9
-93 26 -179 l32 -157 -150 -150 -150 -149 -38 28 c-21 16 -40 32 -43 35 -35
40 -269 172 -382 214 -80 29 -198 63 -253 71 -22 3 -53 8 -70 11 -25 4 -68 10
-110 13 -7 1 -10 159 -10 477 0 514 -1 525 -52 545 -18 7 -159 11 -396 12
l-369 2 -3 59 c-2 46 -8 63 -28 83 -23 24 -30 25 -141 25 l-116 0 -1 27 c0 14
-2 61 -2 103 -2 66 -6 81 -25 100 -22 23 -25 23 -326 25 l-304 3 -26 -27z"/>
<path d="M4535 2064 c-17 -18 -25 -39 -26 -63 -1 -49 -9 -162 -13 -186 -8 -47
45 -96 94 -88 63 10 89 84 85 243 -2 59 -6 75 -25 95 -32 35 -83 34 -115 -1z"/>
<path d="M4465 1550 c-27 -10 -40 -28 -54 -70 -63 -200 -64 -202 -131 -344
-32 -65 -36 -84 -29 -109 8 -29 15 -36 50 -57 21 -12 67 -4 86 15 19 20 106
204 136 290 63 178 68 230 25 266 -22 20 -50 23 -83 9z"/>
<path d="M4094 875 c-16 -8 -63 -46 -104 -85 -223 -214 -523 -371 -815 -426
-160 -30 -180 -41 -190 -109 -6 -40 53 -88 97 -80 13 3 43 8 68 11 59 8 64 9
135 28 329 85 599 237 843 472 55 54 72 77 74 101 5 69 -50 113 -108 88z"/>
<path d="M2444 372 c-64 -10 -86 -105 -33 -144 26 -20 148 -43 278 -52 58 -4
80 -2 102 11 50 30 49 109 0 140 -10 6 -54 14 -97 18 -44 3 -106 11 -139 16
-87 15 -88 15 -111 11z"/>
</g>
</svg>
